<mxfile host="Electron" agent="Mozilla/5.0 (Windows NT 10.0; Win64; x64) AppleWebKit/537.36 (KHTML, like Gecko) draw.io/26.0.9 Chrome/128.0.6613.186 Electron/32.2.5 Safari/537.36" version="26.0.9">
  <diagram name="Page-1" id="KywIKjOFf0tNZCONwxm8">
    <mxGraphModel dx="724" dy="428" grid="1" gridSize="10" guides="1" tooltips="1" connect="1" arrows="1" fold="1" page="1" pageScale="1" pageWidth="827" pageHeight="1169" math="0" shadow="0">
      <root>
        <mxCell id="0" />
        <mxCell id="1" parent="0" />
        <mxCell id="ZWAYKdb7RVpSeqpJJFqe-6" style="edgeStyle=orthogonalEdgeStyle;rounded=0;orthogonalLoop=1;jettySize=auto;html=1;exitX=1;exitY=0.5;exitDx=0;exitDy=0;entryX=0;entryY=0.5;entryDx=0;entryDy=0;" edge="1" parent="1" source="ZWAYKdb7RVpSeqpJJFqe-4" target="ZWAYKdb7RVpSeqpJJFqe-8">
          <mxGeometry relative="1" as="geometry">
            <mxPoint x="50" y="100" as="targetPoint" />
          </mxGeometry>
        </mxCell>
        <mxCell id="ZWAYKdb7RVpSeqpJJFqe-4" value="" style="ellipse;whiteSpace=wrap;html=1;aspect=fixed;fillColor=#000000;" vertex="1" parent="1">
          <mxGeometry y="90" width="20" height="20" as="geometry" />
        </mxCell>
        <mxCell id="ZWAYKdb7RVpSeqpJJFqe-20" style="edgeStyle=orthogonalEdgeStyle;rounded=0;orthogonalLoop=1;jettySize=auto;html=1;exitX=1;exitY=0.5;exitDx=0;exitDy=0;entryX=0.5;entryY=0;entryDx=0;entryDy=0;" edge="1" parent="1" source="ZWAYKdb7RVpSeqpJJFqe-7" target="ZWAYKdb7RVpSeqpJJFqe-19">
          <mxGeometry relative="1" as="geometry" />
        </mxCell>
        <mxCell id="ZWAYKdb7RVpSeqpJJFqe-7" value="Enter valid URL" style="rounded=1;whiteSpace=wrap;html=1;" vertex="1" parent="1">
          <mxGeometry x="100" y="40" width="120" height="40" as="geometry" />
        </mxCell>
        <mxCell id="ZWAYKdb7RVpSeqpJJFqe-13" style="edgeStyle=orthogonalEdgeStyle;rounded=0;orthogonalLoop=1;jettySize=auto;html=1;exitX=0.5;exitY=0;exitDx=0;exitDy=0;entryX=0;entryY=0.5;entryDx=0;entryDy=0;" edge="1" parent="1" source="ZWAYKdb7RVpSeqpJJFqe-8" target="ZWAYKdb7RVpSeqpJJFqe-7">
          <mxGeometry relative="1" as="geometry" />
        </mxCell>
        <mxCell id="ZWAYKdb7RVpSeqpJJFqe-17" value="&lt;font style=&quot;font-size: 8px;&quot;&gt;[Has no URL]&lt;/font&gt;" style="edgeLabel;html=1;align=center;verticalAlign=middle;resizable=0;points=[];" vertex="1" connectable="0" parent="ZWAYKdb7RVpSeqpJJFqe-13">
          <mxGeometry x="0.256" y="1" relative="1" as="geometry">
            <mxPoint y="-9" as="offset" />
          </mxGeometry>
        </mxCell>
        <mxCell id="ZWAYKdb7RVpSeqpJJFqe-23" style="edgeStyle=orthogonalEdgeStyle;rounded=0;orthogonalLoop=1;jettySize=auto;html=1;exitX=1;exitY=0.5;exitDx=0;exitDy=0;entryX=0;entryY=0.5;entryDx=0;entryDy=0;" edge="1" parent="1" source="ZWAYKdb7RVpSeqpJJFqe-8" target="ZWAYKdb7RVpSeqpJJFqe-19">
          <mxGeometry relative="1" as="geometry" />
        </mxCell>
        <mxCell id="ZWAYKdb7RVpSeqpJJFqe-24" value="&lt;font style=&quot;font-size: 8px;&quot;&gt;[Has URL]&lt;/font&gt;" style="edgeLabel;html=1;align=center;verticalAlign=middle;resizable=0;points=[];" vertex="1" connectable="0" parent="ZWAYKdb7RVpSeqpJJFqe-23">
          <mxGeometry x="-0.7702" relative="1" as="geometry">
            <mxPoint x="-5" y="10" as="offset" />
          </mxGeometry>
        </mxCell>
        <mxCell id="ZWAYKdb7RVpSeqpJJFqe-8" value="" style="rhombus;whiteSpace=wrap;html=1;" vertex="1" parent="1">
          <mxGeometry x="40" y="90" width="20" height="20" as="geometry" />
        </mxCell>
        <mxCell id="ZWAYKdb7RVpSeqpJJFqe-25" style="edgeStyle=orthogonalEdgeStyle;rounded=0;orthogonalLoop=1;jettySize=auto;html=1;exitX=1;exitY=0.5;exitDx=0;exitDy=0;entryX=0;entryY=0.5;entryDx=0;entryDy=0;" edge="1" parent="1" source="ZWAYKdb7RVpSeqpJJFqe-19" target="ZWAYKdb7RVpSeqpJJFqe-22">
          <mxGeometry relative="1" as="geometry" />
        </mxCell>
        <mxCell id="ZWAYKdb7RVpSeqpJJFqe-19" value="" style="rhombus;whiteSpace=wrap;html=1;" vertex="1" parent="1">
          <mxGeometry x="240" y="90" width="20" height="20" as="geometry" />
        </mxCell>
        <mxCell id="ZWAYKdb7RVpSeqpJJFqe-31" style="edgeStyle=orthogonalEdgeStyle;rounded=0;orthogonalLoop=1;jettySize=auto;html=1;exitX=1;exitY=0.5;exitDx=0;exitDy=0;entryX=0.5;entryY=0;entryDx=0;entryDy=0;" edge="1" parent="1" source="ZWAYKdb7RVpSeqpJJFqe-21" target="ZWAYKdb7RVpSeqpJJFqe-29">
          <mxGeometry relative="1" as="geometry" />
        </mxCell>
        <mxCell id="ZWAYKdb7RVpSeqpJJFqe-21" value="Select certificate" style="rounded=1;whiteSpace=wrap;html=1;" vertex="1" parent="1">
          <mxGeometry x="340" y="40" width="120" height="40" as="geometry" />
        </mxCell>
        <mxCell id="ZWAYKdb7RVpSeqpJJFqe-26" style="edgeStyle=orthogonalEdgeStyle;rounded=0;orthogonalLoop=1;jettySize=auto;html=1;exitX=0.5;exitY=0;exitDx=0;exitDy=0;entryX=0;entryY=0.5;entryDx=0;entryDy=0;" edge="1" parent="1" source="ZWAYKdb7RVpSeqpJJFqe-22" target="ZWAYKdb7RVpSeqpJJFqe-21">
          <mxGeometry relative="1" as="geometry" />
        </mxCell>
        <mxCell id="ZWAYKdb7RVpSeqpJJFqe-27" value="&lt;font style=&quot;font-size: 8px;&quot;&gt;[Has no certificate]&lt;/font&gt;" style="edgeLabel;html=1;align=center;verticalAlign=middle;resizable=0;points=[];" vertex="1" connectable="0" parent="ZWAYKdb7RVpSeqpJJFqe-26">
          <mxGeometry x="0.112" y="-2" relative="1" as="geometry">
            <mxPoint x="-4" y="-12" as="offset" />
          </mxGeometry>
        </mxCell>
        <mxCell id="ZWAYKdb7RVpSeqpJJFqe-30" style="edgeStyle=orthogonalEdgeStyle;rounded=0;orthogonalLoop=1;jettySize=auto;html=1;exitX=1;exitY=0.5;exitDx=0;exitDy=0;entryX=0;entryY=0.5;entryDx=0;entryDy=0;" edge="1" parent="1" source="ZWAYKdb7RVpSeqpJJFqe-22" target="ZWAYKdb7RVpSeqpJJFqe-29">
          <mxGeometry relative="1" as="geometry" />
        </mxCell>
        <mxCell id="ZWAYKdb7RVpSeqpJJFqe-32" value="&lt;font style=&quot;font-size: 8px;&quot;&gt;[Has certificate]&lt;/font&gt;" style="edgeLabel;html=1;align=center;verticalAlign=middle;resizable=0;points=[];" vertex="1" connectable="0" parent="ZWAYKdb7RVpSeqpJJFqe-30">
          <mxGeometry x="-0.7683" relative="1" as="geometry">
            <mxPoint x="9" y="10" as="offset" />
          </mxGeometry>
        </mxCell>
        <mxCell id="ZWAYKdb7RVpSeqpJJFqe-22" value="" style="rhombus;whiteSpace=wrap;html=1;" vertex="1" parent="1">
          <mxGeometry x="280" y="90" width="20" height="20" as="geometry" />
        </mxCell>
        <mxCell id="ZWAYKdb7RVpSeqpJJFqe-34" style="edgeStyle=orthogonalEdgeStyle;rounded=0;orthogonalLoop=1;jettySize=auto;html=1;exitX=1;exitY=0.5;exitDx=0;exitDy=0;entryX=0;entryY=0.5;entryDx=0;entryDy=0;" edge="1" parent="1" source="ZWAYKdb7RVpSeqpJJFqe-29" target="ZWAYKdb7RVpSeqpJJFqe-33">
          <mxGeometry relative="1" as="geometry" />
        </mxCell>
        <mxCell id="ZWAYKdb7RVpSeqpJJFqe-29" value="" style="rhombus;whiteSpace=wrap;html=1;" vertex="1" parent="1">
          <mxGeometry x="480" y="90" width="20" height="20" as="geometry" />
        </mxCell>
        <mxCell id="ZWAYKdb7RVpSeqpJJFqe-37" style="edgeStyle=orthogonalEdgeStyle;rounded=0;orthogonalLoop=1;jettySize=auto;html=1;exitX=1;exitY=0.5;exitDx=0;exitDy=0;entryX=0;entryY=0.5;entryDx=0;entryDy=0;" edge="1" parent="1" source="ZWAYKdb7RVpSeqpJJFqe-33" target="ZWAYKdb7RVpSeqpJJFqe-35">
          <mxGeometry relative="1" as="geometry" />
        </mxCell>
        <mxCell id="ZWAYKdb7RVpSeqpJJFqe-33" value="Show main page" style="rounded=1;whiteSpace=wrap;html=1;" vertex="1" parent="1">
          <mxGeometry x="520" y="80" width="120" height="40" as="geometry" />
        </mxCell>
        <mxCell id="ZWAYKdb7RVpSeqpJJFqe-35" value="" style="ellipse;whiteSpace=wrap;html=1;aspect=fixed;" vertex="1" parent="1">
          <mxGeometry x="660" y="90" width="20" height="20" as="geometry" />
        </mxCell>
        <mxCell id="ZWAYKdb7RVpSeqpJJFqe-36" value="" style="ellipse;whiteSpace=wrap;html=1;aspect=fixed;fillColor=#030303;" vertex="1" parent="1">
          <mxGeometry x="665" y="95" width="10" height="10" as="geometry" />
        </mxCell>
      </root>
    </mxGraphModel>
  </diagram>
</mxfile>
